<?xml version="1.0" encoding="iso-8859-1"?>
<!-- Generator: Adobe Illustrator 19.0.0, SVG Export Plug-In . SVG Version: 6.00 Build 0)  -->
<svg fill="#6E7FF3" version="1.1" id="Capa_1" xmlns="http://www.w3.org/2000/svg" xmlns:xlink="http://www.w3.org/1999/xlink" x="0px" y="0px"
	 viewBox="0 0 496 496" style="enable-background:new 0 0 496 496;" xml:space="preserve">
<g>
	<g>
		<g>
			<path d="M272,240H166.864c-3.576-13.76-15.992-24-30.864-24V0H96C73.944,0,56,17.944,56,40v86.536
				c-7.72,4.44-14.232,10.848-18.512,18.696l-20.872,38.28C5.744,203.432,0,225.952,0,248.64v106.344
				c0,20.208,3.6,40.056,10.696,58.984L24,449.448V496h16v-49.448L25.68,408.36C19.256,391.224,16,373.272,16,354.992V248.64
				c0-20.016,5.072-39.888,14.656-57.464l20.872-38.28c1.224-2.224,2.776-4.232,4.472-6.104V216c0,13.128,6.448,24.704,16.248,32H72
				v18.744c0,10.68,4.168,20.728,11.72,28.28l15.968,15.968c-1.472,2.656-3.176,5.184-5.336,7.352
				C88.12,324.568,79.84,328,71.032,328H56v16h15.032c13.088,0,25.384-5.096,34.624-14.344C114.904,320.4,120,308.104,120,295.032
				V248c0-8.824,7.176-16,16-16c8.824,0,16,7.176,16,16v108.112c0,21.8-6.696,42.696-19.368,60.448L112,445.44V496h16v-45.44
				l17.648-24.704c14.624-20.48,22.352-44.6,22.352-69.744V256h104V240z M104,292.688l-8.968-8.968
				C90.56,279.248,88,273.064,88,266.744v-11.552c2.584,0.528,5.264,0.808,8,0.808h8V292.688z M120,220.448
				c-7.272,4.248-12.696,11.208-14.864,19.552H96c-13.232,0-24-10.768-24-24V40c0-13.232,10.768-24,24-24h24V220.448z"/>
			<path d="M456,0H152v16h280v216h16V16h8c13.232,0,24,10.768,24,24v176c0,13.232-10.768,24-24,24v16c22.056,0,40-17.944,40-40V40
				C496,17.944,478.056,0,456,0z"/>
			<rect x="88" y="96" width="16" height="64"/>
			<path d="M463.904,272c-5.816,0.072-11.208,1.816-15.904,4.6V272c0-17.648-14.352-32-32-32c-6.632,0-12.8,2.032-17.912,5.496
				C393.712,233.024,381.952,224,368,224c-5.856,0-11.272,1.696-16,4.448V160c0-17.648-14.352-32-32-32s-32,14.352-32,32v112h-0.536
				C261.288,272,240,293.288,240,319.456v86.088c0,19.192,7.488,37.248,21.08,50.84L288,483.32V496h16v-19.312l-31.608-31.616
				C261.824,434.504,256,420.464,256,405.544v-86.088C256,302.112,270.112,288,287.464,288H288v64h16V160c0-8.824,7.176-16,16-16
				c8.824,0,16,7.176,16,16v96v96h16v-96c0-8.824,7.176-16,16-16c8.824,0,16,7.176,16,16v16v80h16v-80c0-8.824,7.176-16,16-16
				c8.824,0,16,7.176,16,16v32.28V352h16v-47.72c0-8.872,7.216-16.176,16.096-16.28c4.168,0.096,8.224,1.56,11.232,4.536
				c3.016,2.976,4.672,6.952,4.672,11.184v101.776c0,14.96-5.832,29.016-16.408,39.592L432,476.68V496h16c0,0,0-8.024,0-12.688
				l26.904-26.904c13.6-13.6,21.096-31.672,21.096-50.912V303.72c0-8.544-3.344-16.552-9.424-22.56
				C480.504,275.152,472.384,271.912,463.904,272z"/>
			<path d="M264,89.472V72h-16v16h-16V72h-16v16h-16v80h16v16h16v-16h16v16h16v-17.472c9.288-3.312,16-12.112,16-22.528
				c0-6.144-2.32-11.752-6.128-16c3.808-4.248,6.128-9.856,6.128-16C280,101.584,273.288,92.784,264,89.472z M256,152h-40v-16h40
				c4.416,0,8,3.592,8,8S260.416,152,256,152z M256,120h-40v-16h40c4.416,0,8,3.592,8,8S260.416,120,256,120z"/>
			<path d="M310.552,113.592l15.688-3.184C317.952,69.608,281.688,40,240,40c-48.52,0-88,39.48-88,88s39.48,88,88,88
				c12.232,0,24.08-2.464,35.2-7.328l-6.4-14.664C259.704,197.984,250.016,200,240,200c-39.704,0-72-32.304-72-72s32.296-72,72-72
				C274.112,56,303.784,80.224,310.552,113.592z"/>
			<path d="M392,88c13.232,0,24-10.768,24-24s-10.768-24-24-24s-24,10.768-24,24S378.768,88,392,88z M392,56c4.416,0,8,3.592,8,8
				s-3.584,8-8,8c-4.416,0-8-3.592-8-8S387.584,56,392,56z"/>
			<path d="M392,152c13.232,0,24-10.768,24-24s-10.768-24-24-24s-24,10.768-24,24S378.768,152,392,152z M392,120
				c4.416,0,8,3.592,8,8s-3.584,8-8,8c-4.416,0-8-3.592-8-8S387.584,120,392,120z"/>
			<path d="M392,216c13.232,0,24-10.768,24-24s-10.768-24-24-24s-24,10.768-24,24S378.768,216,392,216z M392,184
				c4.416,0,8,3.592,8,8s-3.584,8-8,8c-4.416,0-8-3.592-8-8S387.584,184,392,184z"/>
		</g>
	</g>
</g>
<g>
</g>
<g>
</g>
<g>
</g>
<g>
</g>
<g>
</g>
<g>
</g>
<g>
</g>
<g>
</g>
<g>
</g>
<g>
</g>
<g>
</g>
<g>
</g>
<g>
</g>
<g>
</g>
<g>
</g>
</svg>
