<svg xmlns="http://www.w3.org/2000/svg" version="1.1" xmlns:xlink="http://www.w3.org/1999/xlink" xmlns:svgjs="http://svgjs.dev/svgjs" width="1000" height="169" viewBox="0 0 1000 169"><g transform="matrix(1,0,0,1,-0.6060604770212876,-0.184851776529797)"><svg viewBox="0 0 396 67" data-background-color="#fafafa" preserveAspectRatio="xMidYMid meet" height="169" width="1000" xmlns="http://www.w3.org/2000/svg" xmlns:xlink="http://www.w3.org/1999/xlink"><g id="tight-bounds" transform="matrix(1,0,0,1,0.24000005109962785,0.0732847001788457)"><svg viewBox="0 0 395.52 66.85343086770577" height="66.85343086770577" width="395.52"><g><svg viewBox="0 0 511.1547256198372 86.39878416243654" height="66.85343086770577" width="395.52"><g transform="matrix(1,0,0,1,115.63472561983724,26.698478375634515)"><svg viewBox="0 0 395.52 33.00182741116751" height="33.00182741116751" width="395.52"><g id="textblocktransform"><svg viewBox="0 0 395.52 33.00182741116751" height="33.00182741116751" width="395.52" id="textblock"><g><svg viewBox="0 0 395.52 33.00182741116751" height="33.00182741116751" width="395.52"><g transform="matrix(1,0,0,1,0,0)"><svg width="395.52" viewBox="2.299999952316284 -38.599998474121094 472.77001953125 39.44999694824219" height="33.00182741116751" data-palette-color="#130912"><path d="M21.55 0.85Q12 0.85 7.15-4.45 2.3-9.75 2.3-18.85L2.3-18.85Q2.3-24.45 4.45-28.93 6.6-33.4 10.93-36 15.25-38.6 21.55-38.6L21.55-38.6Q24.2-38.6 26.28-38.18 28.35-37.75 30.75-36.75L30.75-36.75 30.75-30.6Q26.65-32.65 21.7-32.65L21.7-32.65Q17.95-32.65 15.15-30.88 12.35-29.1 10.83-25.98 9.3-22.85 9.3-18.9L9.3-18.9Q9.35-12.6 12.55-8.85 15.75-5.1 21.55-5.1L21.55-5.1Q24.1-5.1 26.53-5.83 28.95-6.55 31.65-7.95L31.65-7.95 33.75-2.2Q30.85-0.7 27.65 0.08 24.45 0.85 21.55 0.85L21.55 0.85ZM56.6 0.85Q50.5 0.85 46.27-1.73 42.05-4.3 39.92-8.78 37.8-13.25 37.8-18.9L37.8-18.9Q37.8-24.45 39.92-28.9 42.05-33.35 46.3-35.98 50.55-38.6 56.6-38.6L56.6-38.6Q62.6-38.6 66.82-35.98 71.05-33.35 73.2-28.88 75.35-24.4 75.35-18.9L75.35-18.9Q75.35-13.25 73.2-8.78 71.05-4.3 66.82-1.73 62.6 0.85 56.6 0.85L56.6 0.85ZM56.6-5.1Q60.25-5.1 62.87-6.9 65.5-8.7 66.87-11.88 68.25-15.05 68.25-19.05L68.25-19.05Q68.25-22.9 66.85-25.98 65.45-29.05 62.82-30.85 60.2-32.65 56.6-32.65L56.6-32.65Q52.85-32.65 50.2-30.85 47.55-29.05 46.22-25.93 44.9-22.8 44.9-18.9L44.9-18.9Q44.9-12.75 47.92-8.93 50.95-5.1 56.6-5.1L56.6-5.1ZM95.25-37.9Q105.09-37.9 110.12-33.08 115.15-28.25 115.15-18.9L115.15-18.9Q115.15-9.5 110.15-4.75 105.14 0 95.25 0L95.25 0 82.25 0 82.25-37.9 95.25-37.9ZM108.14-19.05Q108.14-25.7 104.92-28.83 101.69-31.95 95.25-31.95L95.25-31.95 89.19-31.95 89.19-5.95 95.25-5.95Q101.8-5.95 104.97-9.08 108.14-12.2 108.14-19.05L108.14-19.05ZM129.14-5.7L146.49-5.7 146.49 0 122.19 0 122.19-37.9 146.24-37.9 146.24-32.2 129.14-32.2 129.14-21.9 143.74-21.9 143.74-16.2 129.14-16.2 129.14-5.7ZM197.79-37.9L204.64-37.9 194.54 0.45 186.14 0.45 178.19-28.15 170.29 0.45 161.89 0.45 151.74-37.9 158.59-37.9 166.09-7.9 174.19-37.9 182.19-37.9 190.29-7.9 197.79-37.9ZM211.54 0L211.54-37.9 218.49-37.9 218.49 0 211.54 0ZM253.84-37.9L253.84-31.85 242.94-31.85 242.94 0 236.04 0 236.04-31.85 225.14-31.85 225.14-37.9 253.84-37.9ZM284.43-37.9L291.38-37.9 291.38 0 284.43 0 284.43-16.05 267.43-16.05 267.43 0 260.48 0 260.48-37.9 267.43-37.9 267.43-22.05 284.43-22.05 284.43-37.9ZM322.63-19.25Q325.88-18.2 327.66-15.95 329.43-13.7 329.43-10.45L329.43-10.45Q329.43-5.2 326.16-2.6 322.88 0 315.18 0L315.18 0 300.68 0 300.68-37.9 315.18-37.9Q322.13-37.9 325.03-35.35 327.93-32.8 327.93-27.75L327.93-27.75Q327.93-24.7 326.66-22.58 325.38-20.45 322.63-19.25L322.63-19.25ZM307.63-32.3L307.63-21.8 315.18-21.8Q320.88-21.8 320.88-27.15L320.88-27.15Q320.88-29.9 319.58-31.1 318.28-32.3 315.18-32.3L315.18-32.3 307.63-32.3ZM322.38-10.95Q322.38-13.7 320.58-14.95 318.78-16.2 315.18-16.2L315.18-16.2 307.63-16.2 307.63-5.6 315.18-5.6Q319.13-5.6 320.76-6.88 322.38-8.15 322.38-10.95L322.38-10.95ZM343.98-5.7L361.33-5.7 361.33 0 337.03 0 337.03-37.9 361.08-37.9 361.08-32.2 343.98-32.2 343.98-21.9 358.58-21.9 358.58-16.2 343.98-16.2 343.98-5.7ZM380.73 0.85Q373.18 0.85 367.28-1.95L367.28-1.95 367.28-8.25Q373.33-5.1 380.73-5.1L380.73-5.1Q384.28-5.1 385.93-6.45 387.58-7.8 387.63-10.05L387.63-10.05Q387.63-12.25 386.1-13.35 384.58-14.45 381.28-15.35L381.28-15.35 377.88-16.3Q374.98-17.1 372.83-18.23 370.68-19.35 369.23-21.53 367.78-23.7 367.78-27.15L367.78-27.15Q367.78-32.75 371.13-35.68 374.48-38.6 380.58-38.6L380.58-38.6Q384.23-38.6 387-37.93 389.78-37.25 392.68-35.9L392.68-35.9 392.68-29.8Q387.23-32.65 380.58-32.65L380.58-32.65Q374.68-32.65 374.68-27.7L374.68-27.7Q374.73-25.5 376.05-24.45 377.38-23.4 380.63-22.55L380.63-22.55 384.08-21.6Q387.23-20.75 389.43-19.55 391.63-18.35 393.08-16.13 394.53-13.9 394.53-10.35L394.53-10.35Q394.48-5.15 390.8-2.15 387.13 0.85 380.73 0.85L380.73 0.85ZM427.87-37.9L427.87-31.85 416.97-31.85 416.97 0 410.07 0 410.07-31.85 399.17-31.85 399.17-37.9 427.87-37.9ZM434.52 0L434.52-37.9 441.47-37.9 441.47 0 434.52 0ZM457.72-5.7L475.07-5.7 475.07 0 450.77 0 450.77-37.9 474.82-37.9 474.82-32.2 457.72-32.2 457.72-21.9 472.32-21.9 472.32-16.2 457.72-16.2 457.72-5.7Z" opacity="1" transform="matrix(1,0,0,1,0,0)" fill="#130912" class="undefined-text-0" data-fill-palette-color="primary" id="text-0"></path></svg></g></svg></g></svg></g></svg></g><g><svg viewBox="0 0 107.84378621191846 86.39878416243654" height="86.39878416243654" width="107.84378621191846"><g><svg xmlns="http://www.w3.org/2000/svg" xmlns:xlink="http://www.w3.org/1999/xlink" version="1.1" x="0" y="0" viewBox="2.1530001163482666 12.180000305175781 95 76.10901641845703" enable-background="new 0 0 100 100" xml:space="preserve" height="86.39878416243654" width="107.84378621191846" class="icon-icon-0" data-fill-palette-color="accent" id="icon-0"><g fill="#e77917" data-fill-palette-color="accent"><circle fill="none" cx="49.651" cy="72.829" r="1.8"></circle><path fill="none" d="M6.159 65.021h86.985V15.996H6.159V65.021zM56.586 46.886l11.51-4.933v-0.062l-11.51-4.932V33.67l14.891 6.825v2.854l-14.891 6.825V46.886zM51.652 28.924h3.133l-6.639 22.49h-3.132-0.001L51.652 28.924zM27.825 43.256v-2.668l14.89-6.918v3.289l-11.26 4.932v0.062l11.26 4.933v3.288L27.825 43.256 27.825 43.256z"></path><path d="M94.318 12.18h-43.88-1.495H5.063c-1.563 0-2.91 1.188-2.91 2.752v54.092 0.188 5.013 0.313c0 1.563 1.347 2.877 2.91 2.877h35.146c-0.041 0.896-0.321 4.753-2.155 6.623-1.445 1.474-3.453 2.854-2.669 3.563 0.19 0.436 1.091 0.688 3.14 0.688 4.521 0 9.416 0 11.208 0 0.453 0 0.707 0 0.707 0 1.791 0 6.688 0 11.207 0 2.334 0 3.15-0.382 3.158-0.953h-0.08v-0.188h-0.082c-0.104-0.771-1.662-1.907-2.84-3.105-1.834-1.87-2.113-5.727-2.154-6.623h34.674c1.564 0 2.83-1.313 2.83-2.877v-0.314-5.012-0.189V14.934C97.15 13.368 95.883 12.18 94.318 12.18zM49.651 74.676c-1.021 0-1.847-0.824-1.847-1.846s0.826-1.848 1.847-1.848c1.02 0 1.847 0.826 1.847 1.848C51.499 73.852 50.671 74.676 49.651 74.676zM93.145 65.021H6.159V15.996h86.985V65.021z" fill="#e77917" data-fill-palette-color="accent"></path><polygon points="42.715,46.886 31.455,41.953 31.455,41.891 42.715,36.959 42.715,33.67 27.825,40.588 27.825,43.256    27.825,43.257 42.715,50.174  " fill="#e77917" data-fill-palette-color="accent"></polygon><polygon points="48.146,51.414 54.785,28.924 51.652,28.924 45.013,51.414 45.014,51.414  " fill="#e77917" data-fill-palette-color="accent"></polygon><polygon points="71.477,40.495 56.586,33.67 56.586,36.959 68.096,41.891 68.096,41.953 56.586,46.886 56.586,50.174    71.477,43.349  " fill="#e77917" data-fill-palette-color="accent"></polygon></g></svg></g></svg></g></svg></g><defs></defs></svg><rect width="395.52" height="66.85343086770577" fill="none" stroke="none" visibility="hidden"></rect></g></svg></g></svg>